<svg width="42" height="31" viewBox="0 0 42 31" fill="none" xmlns="http://www.w3.org/2000/svg">
<g clip-path="url(#clip0_5032_1772)">
<path d="M25.0627 0.443206C27.0315 0.584093 28.9703 2.33807 28.1468 4.48393C27.1217 7.15473 22.6586 6.98801 21.5973 4.3725C20.6438 2.02385 22.951 0.292036 25.0627 0.443206Z" fill="#14C3BC"/>
<path d="M37.5338 13.3926C38.1577 13.5847 37.9452 12.7182 37.8996 12.3448C37.5505 9.49153 35.9159 7.1085 32.7915 8.02619C29.6991 8.93413 28.2476 12.4282 26.9023 15.0926C26.1565 16.5686 25.2392 18.0405 23.9376 19.0542C24.0117 18.4215 24.112 17.7911 24.2966 17.1817C24.9449 15.0435 26.3505 13.0653 27.26 11.0541C28.9841 7.2413 25.3091 6.95969 22.6693 7.06593C18.7069 7.22524 14.8219 8.15519 10.8801 8.52031C8.28721 8.76033 4.27823 8.7982 1.96673 9.96044C0.41864 10.7386 -0.282205 12.5004 0.58839 14.1043C1.26719 15.3541 3.12674 15.1009 4.28765 14.9071C5.5227 14.7008 6.79915 14.3269 8.00099 13.9689C9.09467 13.6439 10.8247 12.911 11.8884 12.831C12.6828 12.771 12.841 12.8982 12.3565 13.5874C10.6747 15.9788 8.32282 17.6679 6.52697 19.9015C5.24716 21.4927 3.19013 24.8355 3.19446 26.9153C3.19772 28.4211 4.64999 29.0076 5.92403 28.886C8.998 28.5929 11.5326 25.7511 13.3839 23.4421C14.8437 21.622 15.7879 19.1602 16.7902 17.0441C17.4155 15.7249 18.0342 14.0346 19.5141 13.5281C19.9163 13.3905 20.2732 13.5572 20.3529 13.9976C20.592 15.3181 19.1311 17.2194 18.481 18.3151C17.0064 20.8011 14.6848 25.1365 16.0008 28.04C16.8464 29.906 19.2253 29.8606 20.8932 29.3797C24.7939 28.256 28.1252 24.5069 29.8486 20.8511C30.3996 19.6824 31.0318 18.313 31.4689 17.1026C31.6012 16.7357 31.7122 16.1247 31.8691 15.8214C31.9158 15.7318 32.0223 15.6433 32.1017 15.5823C32.1541 15.6903 32.1231 15.8258 32.1022 15.9403C31.9858 16.5711 31.6632 17.4919 31.4626 18.1263C30.5822 20.9108 28.4386 24.6653 29.8003 27.5842C30.4576 28.9928 31.5033 29.2107 32.9383 29.1471C35.6894 29.0241 36.5571 25.0186 36.8255 22.7656C37.1234 20.2622 37.3712 17.6046 37.504 15.0781C37.5336 14.5182 37.5375 13.9518 37.5346 13.392L37.5338 13.3926Z" fill="#212121"/>
<path d="M37.5331 13.3926C37.536 13.9524 37.5321 14.5188 37.5025 15.0787C37.3704 17.6046 37.1226 20.2629 36.824 22.7662C36.5555 25.0199 35.6879 29.0247 32.9368 29.1477C31.5017 29.212 30.4566 28.9941 29.7988 27.5848C28.4364 24.6658 30.5808 20.9107 31.4611 18.1269C31.6617 17.4925 31.9843 16.5717 32.1007 15.9409C32.1215 15.8264 32.1527 15.6902 32.1002 15.5829C32.0207 15.6439 31.9143 15.7324 31.8676 15.822C31.7107 16.1253 31.5997 16.7363 31.4674 17.1032C31.0303 18.3136 30.3981 19.683 29.847 20.8517C28.1237 24.5068 24.7925 28.2559 20.8917 29.3803C19.2232 29.8611 16.845 29.9059 15.9993 28.0406C14.6834 25.1365 17.005 20.801 18.4795 18.3157C19.1296 17.22 20.5899 15.3186 20.3513 13.9982C20.2716 13.5585 19.9148 13.3911 19.5126 13.5286C18.0327 14.0352 17.4135 15.7248 16.7887 17.0447C15.7864 19.1608 14.8422 21.6226 13.3824 23.4427C11.5311 25.7517 8.99648 28.5935 5.92251 28.8866C4.64847 29.0081 3.19621 28.4217 3.19294 26.9159C3.18862 24.8361 5.24564 21.4933 6.52545 19.9021C8.32121 17.6692 10.6738 15.9801 12.3549 13.588C12.8396 12.8981 12.6813 12.7716 11.8869 12.8316C10.8232 12.9116 9.09315 13.6445 7.99948 13.9695C6.79773 14.3268 5.52054 14.7013 4.28613 14.9077C3.12588 15.1016 1.26568 15.3547 0.586876 14.1049C-0.283811 12.5017 0.417126 10.7392 1.96522 9.96103C4.27672 8.79879 8.28635 8.76102 10.8786 8.5209C14.8204 8.15578 18.7054 7.22583 22.6677 7.06652C25.3069 6.96019 28.9826 7.2419 27.2585 11.0547C26.3489 13.0659 24.9435 15.0434 24.2951 17.1823C24.1105 17.7917 24.0102 18.4221 23.9361 19.0548C25.2384 18.0412 26.1557 16.5693 26.9008 15.0932C28.2467 12.4289 29.6981 8.93548 32.79 8.02678C35.9143 7.10909 37.5491 9.49145 37.8981 12.3454C37.9437 12.7187 38.1562 13.5853 37.5323 13.3932L37.5331 13.3926Z" fill="#212121"/>
<path d="M37.5503 10.0229C39.9876 10.0713 41.1725 13.1226 41.6079 15.1891C42.0159 17.1254 42.0198 20.7924 40.2457 22.0298C38.8271 23.0192 35.562 23.0458 34.7067 21.2611C34.0931 19.9817 34.4557 18.0046 35.0843 16.7883C35.5425 15.902 36.2182 15.2239 36.2979 14.1541C36.3745 13.127 35.8045 12.0348 36.1331 11.0309C36.3286 10.434 36.9423 10.0113 37.5503 10.0229Z" fill="#14C3BC"/>
</g>
<defs>
<clipPath id="clip0_5032_1772">
<rect width="42" height="31" fill="white"/>
</clipPath>
</defs>
</svg>
