<svg width="214" height="229" viewBox="0 0 214 229" fill="none" xmlns="http://www.w3.org/2000/svg">
<path d="M201.506 91.7517C201.506 91.7517 167.02 111.466 189.497 173.314C209.459 228.241 137.908 235.705 110.089 224.132C74.0531 209.14 62.1716 157.308 30.4056 166.49C-1.36044 175.672 -15.9133 101.761 30.946 85.2059C89.2372 64.6119 59.5978 39.6992 68.9217 17.789C75.6137 2.06396 128.425 -13.5938 148.217 20.5785C164.871 49.3345 177.247 42.7825 187.789 41.5461C202.994 39.762 229.128 70.488 201.506 91.7517Z" fill="#DEF7FF"/>
<path d="M112.637 87.5234C112.637 87.5234 58.1897 148.681 57.5605 155.463C57.5605 155.463 60.0199 156.553 62.7629 159.732C65.9381 163.413 69.7433 164.818 71.6487 163.781C74.394 162.289 74.1582 160.234 74.1582 160.234L116.179 175.455C116.179 175.455 131.019 170.802 161.114 139.431L169.119 127.993L112.637 87.5234Z" fill="#0E8A85"/>
<path d="M50.2433 96.3577C50.2433 96.3577 56.9445 101.165 64.9532 96.6333L90.1416 82.1759C90.1416 82.1759 98.7177 75.8465 107.537 81.9349C107.537 81.9349 99.5243 101.399 116.033 104.73C116.033 104.73 132.144 112.114 140.669 119.694C144.956 123.507 154.123 129.975 158.482 133.628C159.652 134.607 162.045 136.07 163.259 137.537C164.946 139.574 168.168 144.017 162.998 148.327C162.998 148.327 159.552 152.375 152.648 148.114C146.231 144.155 135.045 134.971 128.265 130.698C127.897 130.467 126.217 130.124 128.561 132.411C131.452 135.229 144.955 145.21 144.955 145.21C144.955 145.21 150.005 148.717 151.205 150.498C152.259 152.059 153.882 155.488 150.861 159.211C150.861 159.211 146.571 164.865 139.218 160.372L122.334 148.586C122.334 148.586 118.743 146.268 121.63 149.651C121.63 149.651 138.765 161.69 139.439 163.522C141.36 168.744 137.643 175.461 129.293 172.219L109.948 161.642C109.948 161.642 108.18 161.383 109.627 162.793C109.627 162.793 127.576 172.056 128.819 173.074C130.446 174.405 126.497 180.678 118.315 178.165C106.644 174.583 83.055 168.133 71.6483 163.78C67.6351 162.249 59.3911 158.159 56.2136 156.236C56.2136 156.236 43.468 148.215 26.0146 147.882L38.589 94.2849L50.2433 96.3577Z" fill="#43CFC9"/>
<path d="M69.7394 167.394C69.7394 167.394 73.4251 162.525 75.7034 160.764C80.3255 157.192 88.6652 160.653 89.0704 165.03C89.0704 165.03 90.8682 169.331 83.4125 175.674C82.0341 176.846 77.6542 179.631 71.2499 174.368C71.2498 174.368 67.4289 170.854 69.7394 167.394Z" fill="#12B1AB"/>
<path d="M77.126 124.116C77.126 124.116 87.8053 132.574 98.8604 107.413C98.8604 107.413 104.743 109.462 113.881 104.163L115.785 101.202C115.785 101.202 97.225 103.177 97.3069 103.542C97.3888 103.907 77.126 124.116 77.126 124.116Z" fill="#0E8A85"/>
<path d="M85.62 176.915C85.4887 173.686 90.0151 167.762 91.9963 165.671C94.3307 163.207 103.523 160.852 104.591 170.638C104.591 170.638 104.021 177.496 98.9148 181.406C96.4874 183.265 85.8979 183.761 85.62 176.915Z" fill="#12B1AB"/>
<path d="M106.224 172.031C107.789 169.543 115.543 168.356 115.716 175.501C115.782 178.207 114.372 182.667 110.354 184.435C107.433 185.72 99.7236 183.628 101.189 180.495C102.196 178.342 102.688 177.653 106.224 172.031Z" fill="#12B1AB"/>
<path d="M56.0376 161.014C56.7115 159.533 57.8249 158.112 60.0482 156.321C61.3935 155.238 65.1735 154.817 67.4467 156.237C69.0782 157.257 72.2946 159.646 71.5737 161.771C70.2024 165.809 67.8777 171.28 62.8446 169.699C62.8443 169.699 53.0335 167.617 56.0376 161.014Z" fill="#12B1AB"/>
<path d="M48.2333 91.0838L37.9608 157.863L4.97559 151.515L19.5942 83.4868L48.2333 91.0838Z" fill="#424242"/>
<path d="M59.6693 158.763C59.6693 158.763 58.0566 163.339 60.9201 165.261C60.9201 165.261 64.6049 169.683 69.1661 162.379C69.9261 161.162 68.2267 159.013 65.2163 158.21C65.2164 158.21 62.3643 157.112 59.6693 158.763Z" fill="#B6ECEA"/>
<path d="M74.2664 166.991C74.2664 166.991 76.1438 162.789 77.7384 162.143C79.3806 161.478 84.3142 161.371 86.3871 166.218C86.7437 167.051 85.456 168.791 84.8764 169.714C83.8081 171.417 81.0496 173.967 77.8428 172.216C77.8425 172.215 73.7401 170.734 74.2664 166.991Z" fill="#B6ECEA"/>
<path d="M91.0543 170.588C91.4998 169.367 93.2286 167.142 94.8022 166.985C97.3905 166.728 103.368 168.647 101.788 172.474C101.788 172.474 100.432 175.719 97.522 176.476C97.522 176.476 92.4751 178.286 90.6083 173.589C90.3274 172.884 90.796 171.3 91.0543 170.588Z" fill="#B6ECEA"/>
<path d="M104.759 177.927C105.504 179.786 108.7 181.707 110.651 179.936C111.442 179.218 113.071 176.819 113.16 175.756C113.309 173.957 109.77 170.16 106.67 173.696C105.939 174.531 104.346 176.897 104.759 177.927Z" fill="#B6ECEA"/>
<path d="M119.933 80.2018C119.933 80.2018 109.14 76.7978 100.884 85.0868L87.0459 93.5598C87.0459 93.5598 81.1438 95.5167 79.3179 103.414L73.0319 116.484C73.0319 116.484 67.9534 125.452 82.7637 124.223C82.7637 124.223 91.2403 120.641 97.9704 107.029L97.923 105.292C97.923 105.292 98.8822 107.435 103.774 106.575C103.774 106.575 108.826 104.826 115.813 102.512C115.813 102.512 116.947 103.892 123.659 107.578C123.659 107.578 140.069 116.165 143.884 120.742L163.544 135.705C163.544 135.705 166.596 134.486 174.19 122.677L191.134 116.654L173.358 68.1558C173.358 68.1558 146.293 78.755 138.346 79.5474L119.933 80.2018Z" fill="#12B1AB"/>
<path d="M161.529 69.3354L184.944 124.457L209.862 114.786L185.384 58.9932L161.529 69.3354Z" fill="#424242"/>
<path d="M76.1533 109.991C76.1533 109.991 82.1016 107.74 83.8555 111.858C83.8555 111.858 82.0484 119.199 80.0152 120.827C78.4434 122.087 73.2252 122.602 72.199 119.916C72.199 119.916 71.5534 117.148 76.1533 109.991Z" fill="#B6ECEA"/>
<path d="M129.787 110.956C129.787 110.956 140.852 115.501 152.03 106.547C152.03 106.547 144.352 116.894 134.016 113.454L129.787 110.956Z" fill="#0E8A85"/>
<path d="M26.7893 145C26.8615 145.724 26.7176 146.452 26.3758 147.094C26.0339 147.736 25.5095 148.261 24.8687 148.605C24.228 148.949 23.4998 149.094 22.7762 149.024C22.0525 148.954 21.366 148.67 20.8034 148.21C20.2409 147.749 19.8275 147.132 19.6156 146.437C19.4037 145.741 19.4029 144.999 19.6131 144.303C19.8233 143.607 20.2352 142.989 20.7967 142.527C21.3582 142.065 22.044 141.78 22.7675 141.708C23.7373 141.612 24.7058 141.904 25.46 142.521C26.2142 143.139 26.6923 144.03 26.7893 145Z" fill="white"/>
<path d="M197.799 109.419C197.871 110.142 197.727 110.871 197.385 111.512C197.043 112.154 196.519 112.679 195.878 113.023C195.238 113.366 194.509 113.512 193.786 113.441C193.063 113.371 192.376 113.088 191.814 112.627C191.251 112.167 190.838 111.55 190.626 110.855C190.415 110.159 190.414 109.417 190.624 108.721C190.834 108.025 191.246 107.407 191.807 106.946C192.368 106.484 193.054 106.199 193.777 106.127C194.257 106.079 194.742 106.126 195.204 106.265C195.667 106.405 196.097 106.634 196.47 106.94C196.844 107.246 197.153 107.622 197.381 108.047C197.609 108.473 197.751 108.939 197.799 109.419Z" fill="white"/>
</svg>
