<svg width="109" height="78" viewBox="0 0 109 78" fill="none" xmlns="http://www.w3.org/2000/svg">
<g clip-path="url(#clip0_3979_11125)">
<path d="M64.9478 1.11376C70.0104 1.46825 74.9961 5.88149 72.8785 11.2807C70.2424 18.0008 58.766 17.5813 56.0368 11.0004C53.5851 5.09087 59.5179 0.733399 64.9478 1.11376Z" fill="#14C3BC"/>
<path d="M97.0148 33.6961C98.6192 34.1795 98.0727 31.9991 97.9555 31.0598C97.0578 23.8805 92.8544 17.8845 84.8204 20.1935C76.8684 22.478 73.136 31.2695 69.6766 37.9735C67.759 41.6875 65.4002 45.3909 62.0531 47.9415C62.2436 46.3494 62.5016 44.7633 62.9762 43.2301C64.6434 37.85 68.2576 32.8726 70.5965 27.8121C75.03 18.2187 65.5798 17.5101 58.7917 17.7774C48.6028 18.1783 38.6127 20.5181 28.4766 21.4368C21.8093 22.0407 11.5005 22.136 5.55662 25.0604C1.57581 27.0183 -0.226369 31.4513 2.01231 35.4869C3.7578 38.6316 8.5395 37.9945 11.5247 37.5069C14.7005 36.9876 17.9828 36.0469 21.0733 35.1462C23.8856 34.3283 28.3342 32.4844 31.0694 32.283C33.1123 32.132 33.519 32.4522 32.273 34.1863C27.9486 40.2032 21.9008 44.4534 17.2829 50.0733C13.992 54.0771 8.7025 62.488 8.71362 67.7209C8.72202 71.5098 12.4564 72.9854 15.7325 72.6796C23.637 71.942 30.1545 64.7916 34.915 58.9821C38.6688 54.4024 41.0968 48.2081 43.674 42.8838C45.2821 39.5646 46.873 35.3114 50.6785 34.0369C51.7127 33.6909 52.6303 34.1104 52.8352 35.2184C53.4502 38.541 49.6937 43.3248 48.0219 46.0817C44.2301 52.3368 38.2602 63.2454 41.6442 70.5509C43.8186 75.2459 49.9359 75.1317 54.2246 73.9217C64.2551 71.0943 72.8212 61.661 77.2527 52.4626C78.6697 49.5221 80.2954 46.0764 81.4193 43.0311C81.7595 42.1079 82.045 40.5704 82.4484 39.8074C82.5686 39.582 82.8422 39.3592 83.0464 39.2058C83.1813 39.4774 83.1015 39.8185 83.0478 40.1065C82.7486 41.6936 81.919 44.0105 81.4032 45.6066C79.1392 52.6128 73.6271 62.0597 77.1288 69.404C78.8187 72.9482 81.5078 73.4965 85.1978 73.3366C92.272 73.027 94.5032 62.9486 95.1935 57.2799C95.9596 50.9808 96.5966 44.2941 96.9382 37.9371C97.0144 36.5282 97.0244 35.1032 97.0168 33.6946L97.0148 33.6961Z" fill="#212121"/>
<path d="M97.0129 33.6961C97.0205 35.1047 97.0105 36.5297 96.9343 37.9385C96.5946 44.2941 95.9573 50.9826 95.1897 57.2814C94.4991 62.9518 92.2681 73.0285 85.1939 73.3381C81.5037 73.4997 78.8163 72.9516 77.1249 69.4055C73.6216 62.0609 79.1355 52.6126 81.3993 45.6081C81.9151 44.0119 82.7447 41.6951 83.0439 40.108C83.0976 39.8199 83.1777 39.4772 83.0426 39.2073C82.8384 39.3607 82.5647 39.5835 82.4445 39.8089C82.0411 40.5719 81.7556 42.1094 81.4154 43.0326C80.2915 46.0779 78.6658 49.5236 77.2488 52.4641C72.8175 61.6609 64.2515 71.0941 54.2207 73.9232C49.9303 75.133 43.8149 75.2457 41.6403 70.5524C38.2566 63.2452 44.2264 52.3366 48.018 46.0832C49.6898 43.3263 53.4447 38.5422 52.8313 35.2199C52.6262 34.1135 51.7088 33.6924 50.6746 34.0384C46.8691 35.3129 45.2768 39.5641 43.6701 42.8853C41.0929 48.2096 38.6649 54.4039 34.9111 58.9836C30.1506 64.7931 23.6331 71.9435 15.7286 72.6811C12.4525 72.9869 8.71812 71.5113 8.70972 67.7224C8.69861 62.4895 13.9881 54.0786 17.279 50.0748C21.8967 44.4566 27.9462 40.2066 32.2691 34.1878C33.5153 32.452 33.1084 32.1335 31.0655 32.2845C28.3304 32.4859 23.8817 34.3298 21.0694 35.1476C17.9792 36.0467 14.695 36.9889 11.5208 37.5083C8.53728 37.9962 3.7539 38.633 2.00841 35.4884C-0.230497 31.4545 1.57191 27.0197 5.55272 25.0619C11.4966 22.1375 21.8071 22.0425 28.4727 21.4383C38.6088 20.5196 48.5989 18.1797 58.7878 17.7789C65.5742 17.5114 75.0261 18.2202 70.5926 27.8136C68.2537 32.8741 64.6397 37.8498 62.9723 43.2316C62.4978 44.7648 62.2397 46.3509 62.0492 47.943C65.398 45.3927 67.7568 41.6892 69.6727 37.975C73.1338 31.2712 76.8659 22.4814 84.8165 20.195C92.8505 17.886 97.0541 23.8803 97.9516 31.0613C98.0689 32.0006 98.6153 34.181 97.011 33.6976L97.0129 33.6961Z" fill="#212121"/>
<path d="M97.057 25.2189C103.324 25.3407 106.371 33.0181 107.491 38.2178C108.54 43.0897 108.55 52.3164 103.988 55.4299C100.34 57.9192 91.9444 57.9862 89.745 53.4957C88.1671 50.2766 89.0995 45.3018 90.716 42.2415C91.8941 40.0115 93.6318 38.3053 93.8367 35.6136C94.0335 33.0291 92.5678 30.2812 93.4128 27.7552C93.9154 26.2534 95.4938 25.1898 97.057 25.2189Z" fill="#14C3BC"/>
</g>
<defs>
<clipPath id="clip0_3979_11125">
<rect width="108" height="78" fill="white" transform="translate(0.5)"/>
</clipPath>
</defs>
</svg>
