<svg width="172" height="166" viewBox="0 0 172 166" fill="none" xmlns="http://www.w3.org/2000/svg">
<path d="M114.532 21.6629C114.532 21.6629 92.2775 48.8683 56.6706 32.6404C21.0638 16.4126 -14.5432 60.3233 16.1183 87.0513C46.7798 113.779 16.7753 128.466 37.6055 144.847C61.2804 163.465 81.8921 125.712 100.685 134.303C142.161 153.264 172.887 145.758 165.964 123.803C153.811 85.263 138.27 82.7558 150.139 62.7097C162.008 42.6635 135.813 0.982695 114.532 21.6629Z" fill="#DEF7FF"/>
<path d="M102.416 96.9056L100.658 106.015L92.284 149.32L77.1992 146.602L86.8714 96.5772L87.3313 94.1934L102.416 96.9056Z" fill="#43CFC9"/>
<path d="M139.566 75.1201L134.364 102.033C134.349 102.112 134.318 102.188 134.272 102.255C134.227 102.322 134.168 102.38 134.1 102.425C134.031 102.471 133.954 102.503 133.873 102.519C133.791 102.536 133.707 102.537 133.626 102.522L60.5488 89.3679L69.15 44.8604L124.642 54.8492C134.699 56.6592 141.38 65.733 139.566 75.1201Z" fill="#14C3BC"/>
<path d="M84.7593 66.0884L79.5985 92.7929L41.2402 85.8882L46.4009 59.1838C48.301 49.3516 58.4285 42.9264 69.0206 44.8331C79.6128 46.7397 86.6594 56.256 84.7593 66.0884Z" fill="#43CFC9"/>
<path d="M102.616 78.5718C99.7897 78.063 97.9246 75.4116 98.4569 72.6582C98.9892 69.9049 101.719 68.08 104.546 68.5891C105.447 68.7525 106.287 69.1433 106.981 69.7217C107.674 70.3001 108.197 71.0456 108.496 71.8823L144.202 78.3095L143.237 83.301L107.531 76.8738C106.94 77.5505 106.174 78.0641 105.311 78.3624C104.448 78.6606 103.518 78.7329 102.616 78.5718Z" fill="#0E8A85"/>
<path d="M83.4863 66.5789L78.4581 92.5971L42.3232 86.0927L47.3517 60.0744C49.2029 50.495 58.7931 44.185 68.7713 45.9812C78.7496 47.7774 85.3375 56.9994 83.4863 66.5789Z" fill="#0E8A85"/>
<path d="M103.629 76.0503C105.081 76.0503 106.259 74.9136 106.259 73.5115C106.259 72.1093 105.081 70.9727 103.629 70.9727C102.176 70.9727 100.998 72.1093 100.998 73.5115C100.998 74.9136 102.176 76.0503 103.629 76.0503Z" fill="white"/>
<path d="M144.615 78.2916L141.461 94.6125C141.447 94.6828 141.405 94.745 141.344 94.7854C141.283 94.8258 141.208 94.8412 141.135 94.8281L132.844 93.3356C132.83 93.333 132.817 93.325 132.809 93.3134C132.8 93.3017 132.797 93.2874 132.8 93.2735L135.995 76.7399C135.998 76.7261 136.006 76.7138 136.018 76.7058C136.03 76.6978 136.045 76.6948 136.059 76.6974L144.571 78.2295C144.585 78.2321 144.598 78.2401 144.606 78.2517C144.614 78.2634 144.618 78.2777 144.615 78.2916Z" fill="#43CFC9"/>
<path d="M54.281 76.7568C54.6301 79.2355 57.4485 82.1818 57.4485 82.1818C53.154 82.4756 50.8282 80.1316 49.8274 78.7073C48.5901 79.0524 47.3185 79.2702 46.0337 79.3571C37.2171 79.9602 29.6273 74.405 29.0792 66.9428C28.5311 59.4807 35.2332 52.9476 44.0498 52.3446C52.8663 51.7416 60.4556 57.2965 61.0036 64.7588C61.3601 69.6127 58.6463 74.0742 54.281 76.7568Z" fill="white"/>
<path d="M79.6353 92.8093C79.236 93.7846 71.9348 122.84 48.3079 118.587C22.3995 114.354 41.1396 85.8799 41.1396 85.8799L79.6353 92.8093Z" fill="#14C3BC"/>
<path d="M45.0417 68.41C46.2524 68.41 47.2338 67.4628 47.2338 66.2943C47.2338 65.1259 46.2524 64.1787 45.0417 64.1787C43.8311 64.1787 42.8496 65.1259 42.8496 66.2943C42.8496 67.4628 43.8311 68.41 45.0417 68.41Z" fill="#43CFC9"/>
<path d="M35.2268 67.4873C36.4448 67.4873 37.4321 66.5343 37.4321 65.3589C37.4321 64.1834 36.4448 63.2305 35.2268 63.2305C34.0088 63.2305 33.0215 64.1834 33.0215 65.3589C33.0215 66.5343 34.0088 67.4873 35.2268 67.4873Z" fill="#43CFC9"/>
<path d="M54.761 69.3115C55.979 69.3115 56.9663 68.3586 56.9663 67.1831C56.9663 66.0076 55.979 65.0547 54.761 65.0547C53.543 65.0547 52.5557 66.0076 52.5557 67.1831C52.5557 68.3586 53.543 69.3115 54.761 69.3115Z" fill="#43CFC9"/>
<path d="M102.416 96.9056L100.658 106.015L86.8711 96.5772L87.331 94.1934L102.416 96.9056Z" fill="#0E8A85"/>
</svg>
