<svg width="225" height="209" viewBox="0 0 225 209" fill="none" xmlns="http://www.w3.org/2000/svg">
<path d="M2.19538 26.5212C-3.41524 43.0003 3.27302 60.7814 6.88229 77.8258C9.84597 91.8963 10.665 106.335 9.31135 120.651C8.31923 131.289 6.11258 141.858 6.28363 152.547C6.34857 166.179 10.8663 179.414 19.147 190.234C23.3168 195.586 28.5524 200.011 34.5215 203.228C40.4905 206.446 47.0625 208.385 53.8199 208.922C66.6491 209.676 79.0164 204.76 91.4521 201.728C103.42 198.821 115.739 197.627 128.041 198.182C136.252 198.542 144.445 199.689 152.673 199.809C174.226 200.083 199.08 191.467 212.029 173.275C236.387 139.015 224.465 86.8876 191.913 62.3745C176.74 50.9487 158.318 44.3879 139.587 41.4244C126.194 39.3174 112.218 38.8891 99.8339 33.4589C86.1494 27.5147 75.8005 16.1403 63.3477 8.02067C40.4092 -6.93391 11.6205 -1.09254 2.19538 26.5212Z" fill="#DEF7FF"/>
<g style="mix-blend-mode:multiply">
<path d="M192.648 177.249H26.5361V185.865H192.648V177.249Z" fill="#5D5D5D"/>
</g>
<path d="M159.087 76.5415H33.5322V179.236H159.087V76.5415Z" fill="#14C3BC"/>
<path d="M185.292 76.5415H154.69V179.236H185.292V76.5415Z" fill="#12B1AB"/>
<path d="M64.0999 76.5411H33.5323L16.4268 57.4067H46.9944L64.0999 76.5411Z" fill="#14C3BC"/>
<path d="M154.69 76.5411H185.258L202.364 57.4067H171.796L154.69 76.5411Z" fill="#14C3BC"/>
<path d="M118.29 110.014H33.5322V154.261H118.29V110.014Z" fill="white"/>
<path d="M100.005 118.441H40.2549V121.918H100.005V118.441Z" fill="#9B9B9B"/>
<path d="M100.005 126.15H40.2549V129.627H100.005V126.15Z" fill="#9B9B9B"/>
<path d="M69.1804 133.841H40.2549V137.318H69.1804V133.841Z" fill="#9B9B9B"/>
<path d="M125.852 138.124C125.852 139.818 125.35 141.474 124.41 142.883C123.47 144.291 122.135 145.389 120.572 146.037C119.009 146.685 117.289 146.855 115.63 146.525C113.971 146.194 112.447 145.378 111.251 144.181C110.055 142.983 109.24 141.457 108.91 139.795C108.58 138.134 108.75 136.412 109.397 134.846C110.044 133.281 111.141 131.944 112.547 131.003C113.954 130.061 115.607 129.559 117.299 129.559C119.567 129.559 121.743 130.461 123.347 132.068C124.951 133.674 125.852 135.853 125.852 138.124Z" fill="#45505A"/>
</svg>
