<svg width="24" height="24" viewBox="0 0 24 24" fill="none" xmlns="http://www.w3.org/2000/svg">
<path d="M21.051 10.4648C22.3162 11.0974 22.3162 12.9029 21.051 13.5355L3.94815 22.0869C2.61947 22.7513 1.13144 21.5288 1.52534 20.0964L3.43889 13.138C3.64371 12.3932 3.64371 11.607 3.43889 10.8622L1.52535 3.90393C1.13145 2.47158 2.61948 1.24906 3.94817 1.9134L21.051 10.4648Z" fill="#C8C8C8"/>
<path d="M8.8102 11.8578H13.1108M3.43889 13.138L1.52534 20.0964C1.13144 21.5288 2.61947 22.7513 3.94815 22.0869L21.051 13.5355C22.3162 12.9029 22.3162 11.0974 21.051 10.4648L3.94817 1.9134C2.61948 1.24906 1.13145 2.47158 1.52535 3.90393L3.43889 10.8622C3.64371 11.607 3.64371 12.3932 3.43889 13.138Z" stroke="#DEDEDE" stroke-linecap="round" stroke-linejoin="round"/>
</svg>
