<svg width="24" height="24" viewBox="0 0 24 24" fill="none" xmlns="http://www.w3.org/2000/svg">
<path d="M21.59 10.4648C22.8553 11.0974 22.8553 12.9029 21.59 13.5355L4.48722 22.0869C3.15853 22.7513 1.6705 21.5288 2.0644 20.0964L3.97795 13.138C4.18277 12.3932 4.18277 11.607 3.97795 10.8622L2.06441 3.90393C1.67051 2.47158 3.15854 1.24906 4.48723 1.9134L21.59 10.4648Z" fill="#14C3BC"/>
<path d="M9.34926 11.8578H13.6498M3.97795 13.138L2.0644 20.0964C1.6705 21.5288 3.15853 22.7513 4.48722 22.0869L21.59 13.5355C22.8553 12.9029 22.8553 11.0974 21.59 10.4648L4.48723 1.9134C3.15854 1.24906 1.67051 2.47158 2.06441 3.90393L3.97795 10.8622C4.18277 11.607 4.18277 12.3932 3.97795 13.138Z" stroke="#E8F9F8" stroke-linecap="round" stroke-linejoin="round"/>
</svg>
