<svg width="24" height="23" viewBox="0 0 24 23" fill="none" xmlns="http://www.w3.org/2000/svg">
<path fill-rule="evenodd" clip-rule="evenodd" d="M12 2C6.47715 2 2 6.47715 2 12C2 13.6451 2.39724 15.1974 3.10104 16.5662C3.23427 16.8254 3.26438 17.1275 3.16731 17.4022L2.23903 20.0292C1.90294 20.9804 2.81914 21.8966 3.77027 21.5605L6.29286 20.6691C6.57856 20.5681 6.89316 20.6048 7.15817 20.7518C8.59275 21.5471 10.2435 22 12 22C17.5228 22 22 17.5228 22 12C22 6.47715 17.5228 2 12 2Z" fill="#0ECFC8"/>
<circle opacity="0.7" cx="7.0498" cy="12.0498" r="1.25" fill="#FFFDFD"/>
<circle opacity="0.7" cx="12.0498" cy="12.0498" r="1.25" fill="#FFFDFD"/>
<circle opacity="0.7" cx="17.0498" cy="12.0498" r="1.25" fill="#FFFDFD"/>
</svg>
