<svg width="30" height="26" viewBox="0 0 30 26" fill="none" xmlns="http://www.w3.org/2000/svg">
<path d="M0.75 20.0167V11.15C0.75 9.37648 0.75 8.48907 1.09515 7.81169C1.39875 7.21584 1.88283 6.73175 2.47868 6.42815C3.15607 6.08301 4.04348 6.08301 5.81698 6.08301H11.0242C10.8562 6.08294 10.762 6.08207 10.6876 6.07373C9.75724 5.96957 9.11915 5.08404 9.31454 4.1685C9.33272 4.0833 9.36865 3.9755 9.43981 3.76203L9.44287 3.753C9.52414 3.50918 9.56478 3.38728 9.60967 3.2797C10.0693 2.17833 11.1101 1.42932 12.3003 1.34158C12.4165 1.33301 12.5443 1.33301 12.8013 1.33301H17.1986C17.4556 1.33301 17.5844 1.33301 17.7006 1.34158C18.8908 1.42932 19.9305 2.17833 20.3901 3.2797C20.435 3.38728 20.4759 3.50905 20.5571 3.75285C20.6303 3.97241 20.6669 4.08224 20.6854 4.16865C20.8807 5.08419 20.2437 5.96957 19.3133 6.07373C19.2389 6.08207 19.1438 6.08294 18.9755 6.08301H24.1836C25.9571 6.08301 26.8427 6.08301 27.52 6.42815C28.1159 6.73175 28.6016 7.21584 28.9052 7.81169C29.25 8.48841 29.25 9.37475 29.25 11.1448V20.0212C29.25 21.7913 29.25 22.6763 28.9052 23.3531C28.6016 23.9489 28.1159 24.4346 27.52 24.7382C26.8433 25.083 25.9583 25.083 24.1882 25.083H5.81177C4.04174 25.083 3.1554 25.083 2.47868 24.7382C1.88283 24.4346 1.39875 23.9489 1.09515 23.3531C0.75 22.6757 0.75 21.7901 0.75 20.0167Z" fill="#9B9B9B"/>
<path d="M11.0242 6.08301H5.81698C4.04348 6.08301 3.15607 6.08301 2.47868 6.42815C1.88283 6.73175 1.39875 7.21584 1.09515 7.81169C0.75 8.48907 0.75 9.37649 0.75 11.15V20.0167C0.75 21.7902 0.75 22.6757 1.09515 23.3531C1.39875 23.9489 1.88283 24.4346 2.47868 24.7382C3.1554 25.083 4.04174 25.083 5.81177 25.083H24.1882C25.9583 25.083 26.8433 25.083 27.52 24.7382C28.1159 24.4346 28.6016 23.9489 28.9052 23.3531C29.25 22.6763 29.25 21.7913 29.25 20.0212V11.1448C29.25 9.37475 29.25 8.48841 28.9052 7.81169C28.6016 7.21584 28.1159 6.73175 27.52 6.42815C26.8427 6.08301 25.9571 6.08301 24.1836 6.08301H18.9755M11.0242 6.08301H11.1221M11.0242 6.08301C11.0441 6.08302 11.0649 6.08301 11.0869 6.08301L11.1221 6.08301M11.0242 6.08301C10.8562 6.08294 10.762 6.08207 10.6876 6.07373C9.75724 5.96957 9.11915 5.08404 9.31454 4.1685C9.33272 4.0833 9.36865 3.9755 9.43981 3.76203L9.44287 3.753C9.52414 3.50918 9.56478 3.38728 9.60967 3.2797C10.0693 2.17833 11.1101 1.42932 12.3003 1.34158C12.4165 1.33301 12.5443 1.33301 12.8013 1.33301H17.1986C17.4556 1.33301 17.5844 1.33301 17.7006 1.34158C18.8908 1.42932 19.9305 2.17833 20.3901 3.2797C20.435 3.38728 20.4759 3.50905 20.5571 3.75285C20.6303 3.97241 20.6669 4.08224 20.6854 4.16865C20.8807 5.08419 20.2437 5.96957 19.3133 6.07373C19.2389 6.08207 19.1438 6.08294 18.9755 6.08301M11.1221 6.08301H18.8775M18.8775 6.08301H18.9755M18.8775 6.08301L18.9127 6.08301C18.9347 6.08301 18.9556 6.08302 18.9755 6.08301M15 20.333C12.3766 20.333 10.25 18.2064 10.25 15.583C10.25 12.9597 12.3766 10.833 15 10.833C17.6234 10.833 19.75 12.9597 19.75 15.583C19.75 18.2064 17.6234 20.333 15 20.333Z" stroke="#C8C8C8" stroke-width="1.5" stroke-linecap="round" stroke-linejoin="round"/>
</svg>
