<svg width="18" height="18" viewBox="0 0 18 18" fill="none" xmlns="http://www.w3.org/2000/svg">
<circle cx="9" cy="9" r="9" fill="#14C3BC"/>
<path d="M8.97656 13.1172C7.11328 13.1172 5.77734 12.0859 5.74219 10.6094H7.52344C7.55859 11.2422 8.16797 11.6641 8.98828 11.6641C9.83203 11.6641 10.4414 11.1836 10.4297 10.5039C10.4414 9.8125 9.82031 9.32031 8.82422 9.32031H8.03906V8.01953H8.82422C9.65625 8.01953 10.2422 7.5625 10.2422 6.89453C10.2422 6.25 9.75 5.80469 9 5.80469C8.25 5.80469 7.62891 6.22656 7.60547 6.87109H5.91797C5.94141 5.40625 7.26562 4.39844 9 4.39844C10.7695 4.39844 11.9531 5.44141 11.9414 6.78906C11.9531 7.73828 11.2852 8.41797 10.3359 8.58203V8.65234C11.5781 8.80469 12.2695 9.56641 12.2578 10.6211C12.2695 12.0742 10.8867 13.1172 8.97656 13.1172Z" fill="#F3FDFC"/>
</svg>