<svg width="134" height="39" viewBox="0 0 134 39" fill="none" xmlns="http://www.w3.org/2000/svg">
<path d="M11.6131 38V8.96066H0.115033V0.564382H33.6467V8.96066H22.202V38H11.6131ZM37.5916 38V0.564382H48.1805V38H37.5916ZM55.714 38V0.564382H64.4312L85.0742 25.4858H80.9563V0.564382H91.3313V38H82.6142L61.9711 13.0786H66.089V38H55.714Z" fill="black"/>
<path d="M116.074 38.7487C110.548 38.7487 106.234 37.2335 103.132 34.203C100.031 31.1725 98.4796 26.8763 98.4796 21.3144V0.564382H109.069V20.9935C109.069 24.2023 109.692 26.5019 110.94 27.8924C112.224 29.2828 113.971 29.9781 116.181 29.9781C118.392 29.9781 120.121 29.2828 121.369 27.8924C122.617 26.5019 123.241 24.2023 123.241 20.9935V0.564382H133.669V21.3144C133.669 26.8763 132.118 31.1725 129.016 34.203C125.915 37.2335 121.601 38.7487 116.074 38.7487Z" fill="#14C3BC"/>
</svg>
