<svg width="63" height="18" viewBox="0 0 63 18" fill="none" xmlns="http://www.w3.org/2000/svg">
<path d="M5.42017 17.6471V3.95798H0V0H15.8067V3.95798H10.4118V17.6471H5.42017Z" fill="black"/>
<path d="M17.6664 17.6471V0H22.658V17.6471H17.6664Z" fill="black"/>
<path d="M26.2092 17.6471V0H30.3185L40.0496 11.7479H38.1084V0H42.9991V17.6471H38.8899L29.1588 5.89916H31.1V17.6471H26.2092Z" fill="black"/>
<path d="M54.6629 18C52.0579 18 50.0243 17.2857 48.5621 15.8571C47.0999 14.4286 46.3688 12.4034 46.3688 9.78151V0H51.3604V9.63025C51.3604 11.1429 51.6545 12.2269 52.2428 12.8824C52.8478 13.5378 53.6713 13.8655 54.7134 13.8655C55.7554 13.8655 56.5705 13.5378 57.1587 12.8824C57.747 12.2269 58.0411 11.1429 58.0411 9.63025V0H62.9571V9.78151C62.9571 12.4034 62.226 14.4286 60.7638 15.8571C59.3016 17.2857 57.268 18 54.6629 18Z" fill="#14C3BC"/>
</svg>
